<!-- icon666.com - MILLIONS OF FREE VECTOR ICONS --><svg viewBox="0 0 48 48" xmlns="http://www.w3.org/2000/svg"
    xmlns:xlink="http://www.w3.org/1999/xlink">
    <linearGradient id="linear-gradient" gradientUnits="userSpaceOnUse" x1="1.964" x2="44.724" y1="46.036" y2="3.276">
        <stop offset=".014" stop-color="#4279bd" />
        <stop offset=".1841" stop-color="#3f83ba" />
        <stop offset=".4759" stop-color="#389fb0" />
        <stop offset=".852" stop-color="#2ccba2" />
        <stop offset=".9134" stop-color="#2ad39f" />
    </linearGradient>
    <linearGradient id="linear-gradient-2" x1="1.966" x2="44.726" xlink:href="#linear-gradient" y1="46.038"
        y2="3.278" />
    <linearGradient id="linear-gradient-3" x1="-.284" x2="42.476" xlink:href="#linear-gradient" y1="43.788"
        y2="1.028" />
    <linearGradient id="linear-gradient-4" x1="4.216" x2="46.976" xlink:href="#linear-gradient" y1="48.288"
        y2="5.528" />
    <linearGradient id="linear-gradient-6" x1="-4.978" x2="37.782" xlink:href="#linear-gradient" y1="39.094"
        y2="-3.666" />
    <linearGradient id="linear-gradient-7" x1="8.464" x2="51.224" xlink:href="#linear-gradient" y1="52.536"
        y2="9.776" />
    <g id="sport">
        <path d="m11 45a8 8 0 1 1 8-8 8.0092 8.0092 0 0 1 -8 8zm0-14a6 6 0 1 0 6 6 6.0066 6.0066 0 0 0 -6-6z"
            fill="url(#linear-gradient)" />
        <path
            d="m11 45a8.0036 8.0036 0 1 1 5.1416-1.873 7.9464 7.9464 0 0 1 -5.1416 1.873zm0-14a6.024 6.024 0 0 0 -6 6 6 6 0 1 0 9.8613-4.58 5.9074 5.9074 0 0 0 -3.8613-1.42z"
            fill="url(#linear-gradient-2)" />
        <path
            d="m6.5 43.36a.9987.9987 0 0 1 -.6416-.2334 7.9848 7.9848 0 0 1 .0029-12.2461 1.0017 1.0017 0 0 1 1.2774 0 7.9222 7.9222 0 0 1 2.8613 6.1195 7.9671 7.9671 0 0 1 -2.8584 6.127.9987.9987 0 0 1 -.6416.233zm0-10.3243a5.9952 5.9952 0 0 0 0 7.9336 5.9745 5.9745 0 0 0 1.5-3.9693 5.9412 5.9412 0 0 0 -1.5-3.9639z"
            fill="url(#linear-gradient-3)" />
        <path
            d="m15.5 43.36a.9987.9987 0 0 1 -.6416-.2334 7.9848 7.9848 0 0 1 .0029-12.2461 1.0017 1.0017 0 0 1 1.2774 0 7.9848 7.9848 0 0 1 .0029 12.2461.9987.9987 0 0 1 -.6416.2334zm0-10.3243a5.9952 5.9952 0 0 0 0 7.9336 5.9952 5.9952 0 0 0 0-7.9336z"
            fill="url(#linear-gradient-4)" />
        <path
            d="m24 45a20.81 20.81 0 0 1 -8.7266-1.9 1 1 0 0 1 -.2505-1.6543 6.0035 6.0035 0 0 0 -4.0229-10.4457 5.8936 5.8936 0 0 0 -3.8481 1.4092 4.4943 4.4943 0 0 0 -.5889.5693 1.0007 1.0007 0 0 1 -1.6621-.2412 20.9963 20.9963 0 0 1 32.75-24.6865 21 21 0 0 1 -13.6509 36.9492zm-6.6108-3.1865a18.9782 18.9782 0 1 0 -11.2041-11.1963 7.9686 7.9686 0 0 1 9.9668.2744 7.9841 7.9841 0 0 1 1.2373 10.9219z"
            fill="url(#linear-gradient)" />
        <path
            d="m16.19 33.32a1.0007 1.0007 0 0 1 -.7529-.3418 4.3943 4.3943 0 0 0 -.56-.5459 5.9605 5.9605 0 0 0 -7.7251-.0234 4.4943 4.4943 0 0 0 -.5889.5693 1.0007 1.0007 0 0 1 -1.6621-.2412 20.9975 20.9975 0 0 1 5.45-24.6885 1.0013 1.0013 0 0 1 1.2978 0 20.9335 20.9335 0 0 1 7.3512 15.9515 20.82 20.82 0 0 1 -1.9009 8.7373 1 1 0 0 1 -.7656.5723.89.89 0 0 1 -.1435.0104zm-5.19-4.32a7.9188 7.9188 0 0 1 4.8145 1.6182 18.8369 18.8369 0 0 0 1.1855-6.6182 18.9384 18.9384 0 0 0 -6-13.85 19.0084 19.0084 0 0 0 -4.8149 20.4672 7.9 7.9 0 0 1 4.8149-1.6172z"
            fill="url(#linear-gradient-6)" />
        <path
            d="m37 40.19a.9993.9993 0 0 1 -.6489-.2392 20.9819 20.9819 0 0 1 0-31.9024 1.0013 1.0013 0 0 1 1.2978 0 20.9819 20.9819 0 0 1 0 31.9024.9993.9993 0 0 1 -.6489.2392zm0-30.04a18.9843 18.9843 0 0 0 0 27.7 18.9843 18.9843 0 0 0 0-27.7z"
            fill="url(#linear-gradient-7)" />
        <g fill="url(#linear-gradient)">
            <path d="m24 45a1 1 0 0 1 -1-1v-40a1 1 0 0 1 2 0v40a1 1 0 0 1 -1 1z" />
            <path d="m44 25h-40a1 1 0 0 1 0-2h40a1 1 0 0 1 0 2z" />
        </g>
    </g>
</svg>